<svg width="400" height="400" viewBox="0 0 400 400" fill="none" xmlns="http://www.w3.org/2000/svg">
<path d="M28.2949 100.866L200 1.73205L371.705 100.866V299.134L200 398.268L28.2949 299.134V100.866Z" stroke="#8E8E8E" stroke-width="3"/>
<path d="M101.981 143.012L200 86.0325L298.019 143.012V256.988L200 313.967L101.981 256.988V143.012Z" stroke="#8E8E8E" stroke-width="3"/>
<path d="M200 2.89258V396.694M371.638 298.76L29.8289 100.826M29.8289 298.76L371.638 100.826" stroke="#8E8E8E" stroke-width="3"/>
<path d="M200.5 356L168 378L200.5 400L233 378L200.5 356Z" fill="#8E8E8E"/>
<path d="M372.205 100L199 200.218M199 400V200.218M25.7949 100L199 200.218M199 200.218V3.5" stroke="black" stroke-width="13"/>
</svg>
