<svg width="520" height="600" viewBox="0 0 520 600" fill="none" xmlns="http://www.w3.org/2000/svg">
<path d="M260 20L502.487 160V440L260 580L17.5129 440V160L260 20Z" fill="white"/>
<path d="M2.69238 151.443L260 2.88675L517.308 151.443V448.557L260 597.113L2.69238 448.557V151.443Z" stroke="white" stroke-width="5"/>
<path d="M97.656 328.008C101 328.008 103.728 327.524 105.84 326.556C108.04 325.5 109.712 324.136 110.856 322.464C112.088 320.704 112.924 318.724 113.364 316.524C113.804 314.236 114.024 311.904 114.024 309.528V307.152H131.448V309.528C131.448 320.528 128.544 329.02 122.736 335.004C117.016 340.9 108.656 343.848 97.656 343.848C87.096 343.848 78.736 340.636 72.576 334.212C66.416 327.788 63.336 318.416 63.336 306.096V285.504C63.336 279.608 64.128 274.328 65.712 269.664C67.296 264.912 69.584 260.952 72.576 257.784C75.568 254.528 79.176 252.064 83.4 250.392C87.624 248.632 92.376 247.752 97.656 247.752C103.112 247.752 107.952 248.544 112.176 250.128C116.4 251.712 119.92 254 122.736 256.992C125.64 259.984 127.796 263.592 129.204 267.816C130.7 272.04 131.448 276.792 131.448 282.072V284.448H114.024V282.072C114.024 279.872 113.76 277.672 113.232 275.472C112.704 273.272 111.824 271.292 110.592 269.532C109.36 267.772 107.688 266.364 105.576 265.308C103.464 264.164 100.824 263.592 97.656 263.592C94.752 263.592 92.244 264.164 90.132 265.308C88.02 266.364 86.26 267.86 84.852 269.796C83.444 271.644 82.388 273.844 81.684 276.396C81.068 278.86 80.76 281.456 80.76 284.184V307.416C80.76 310.408 81.068 313.18 81.684 315.732C82.3 318.196 83.268 320.352 84.588 322.2C85.908 324.048 87.624 325.5 89.736 326.556C91.936 327.524 94.576 328.008 97.656 328.008ZM212.272 310.056C212.272 315.512 211.348 320.352 209.5 324.576C207.652 328.712 205.144 332.232 201.976 335.136C198.808 337.952 195.156 340.108 191.02 341.604C186.972 343.1 182.704 343.848 178.216 343.848C173.728 343.848 169.416 343.1 165.28 341.604C161.232 340.108 157.624 337.952 154.456 335.136C151.288 332.232 148.78 328.712 146.932 324.576C145.084 320.352 144.16 315.512 144.16 310.056V308.472C144.16 303.104 145.084 298.352 146.932 294.216C148.78 289.992 151.288 286.428 154.456 283.524C157.624 280.62 161.232 278.42 165.28 276.924C169.416 275.428 173.728 274.68 178.216 274.68C182.704 274.68 186.972 275.428 191.02 276.924C195.156 278.42 198.808 280.62 201.976 283.524C205.144 286.428 207.652 289.992 209.5 294.216C211.348 298.352 212.272 303.104 212.272 308.472V310.056ZM178.216 328.008C180.592 328.008 182.836 327.612 184.948 326.82C187.06 326.028 188.908 324.884 190.492 323.388C192.076 321.892 193.308 320.088 194.188 317.976C195.156 315.776 195.64 313.312 195.64 310.584V307.944C195.64 305.216 195.156 302.796 194.188 300.684C193.308 298.484 192.076 296.636 190.492 295.14C188.908 293.644 187.06 292.5 184.948 291.708C182.836 290.916 180.592 290.52 178.216 290.52C175.84 290.52 173.596 290.916 171.484 291.708C169.372 292.5 167.524 293.644 165.94 295.14C164.356 296.636 163.08 298.484 162.112 300.684C161.232 302.796 160.792 305.216 160.792 307.944V310.584C160.792 313.312 161.232 315.776 162.112 317.976C163.08 320.088 164.356 321.892 165.94 323.388C167.524 324.884 169.372 326.028 171.484 326.82C173.596 327.612 175.84 328.008 178.216 328.008ZM229.472 249.6H287.816V266.232H246.896V287.352H286.232V303.984H246.896V325.368H289.4V342H229.472V249.6ZM326.401 342H309.769V276.528H326.401V286.296H328.777C330.273 282.6 332.693 279.74 336.037 277.716C339.381 275.692 343.297 274.68 347.785 274.68C350.953 274.68 353.901 275.208 356.629 276.264C359.445 277.232 361.909 278.772 364.021 280.884C366.133 282.996 367.761 285.68 368.905 288.936C370.137 292.192 370.753 296.064 370.753 300.552V342H354.121V304.776C354.121 300.112 352.977 296.46 350.689 293.82C348.489 291.092 345.277 289.728 341.053 289.728C336.125 289.728 332.429 291.4 329.965 294.744C327.589 298 326.401 302.4 326.401 307.944V342ZM385.973 276.528H403.925L419.369 334.08H421.745L437.189 276.528H455.141L436.397 342H404.717L385.973 276.528Z" fill="black"/>
</svg>

