<svg width="547" height="548" viewBox="0 0 547 548" fill="none" xmlns="http://www.w3.org/2000/svg">
<path d="M74.9371 274L174.071 102.295L372.339 102.295L471.473 274L372.339 445.705L174.071 445.705L74.9371 274Z" stroke="#8E8E8E" stroke-width="3"/>
<path d="M159.824 273.656L216.221 175.301L329.598 175.637L386.586 274.344L330.189 372.699L216.812 372.363L159.824 273.656Z" stroke="#8E8E8E" stroke-width="3"/>
<path d="M174.651 103.3L371.552 444.342M471.228 273.71L76.2458 273.199M175.213 444.614L372.261 102.294" stroke="#8E8E8E" stroke-width="3"/>
<path d="M351.638 408.85L334.492 444.153L373.638 446.955L390.784 411.653L351.638 408.85Z" fill="#8E8E8E"/>
<path d="M172.339 101.295L372.339 101.295L272.448 274.689M472.339 274.5L372.339 447.705L272.448 274.689M172.339 447.705L72.3391 274.5L272.448 274.689" stroke="black" stroke-width="13"/>
</svg>
